<svg width="50" height="50" viewBox="0 0 50 50" fill="none" xmlns="http://www.w3.org/2000/svg">
<g clip-path="url(#clip0_417_862)">
<path d="M24.9731 49.9008L7.00427 44.9126L3 0H47L42.9915 44.9055L24.9731 49.9008Z" fill="#264DE4"/>
<path d="M39.5096 43.4782L42.9232 12.7236H25.0005V46.7133L39.5096 43.4782Z" fill="#2965F1"/>
<path d="M12.2241 26.0742L12.7161 30.4888H24.9998V26.0742H12.2241Z" fill="#EBEBEB"/>
<path d="M11.2354 17.1387L11.7343 21.5534H24.9996V17.1387H11.2354Z" fill="#EBEBEB"/>
<path d="M24.9994 37.5406L24.9754 37.5457L18.862 36.2181L18.4712 32.6973H12.9609L13.73 39.6289L24.9741 42.1393L24.9994 42.1337V37.5406Z" fill="#EBEBEB"/>
<path d="M37.7419 26.074L38.7329 17.1387H24.9824V21.5534H32.7172L32.2178 26.074H24.9824V30.4886H31.7417L31.1046 36.2141L24.9824 37.543V42.1359L36.2355 39.6276L36.3181 38.8818L37.608 27.2595L37.7419 26.074Z" fill="white"/>
</g>
<defs>
<clipPath id="clip0_417_862">
<rect width="44" height="49.9008" fill="white" transform="translate(3)"/>
</clipPath>
</defs>
</svg>
