<svg width="36" height="50" viewBox="0 0 36 50" fill="none" xmlns="http://www.w3.org/2000/svg">
<g clip-path="url(#clip0_409_623)">
<path d="M17.7068 49.8741L3.27711 45.8683L0.0615234 9.80176H35.3953L32.1763 45.8627L17.7068 49.8741Z" fill="#264DE4"/>
<path d="M29.4206 43.5657L32.1714 12.75H17.7285V46.8072L29.4206 43.5657Z" fill="#2965F1"/>
<path d="M7.43311 26.127L7.82956 30.5503H17.7283V26.127H7.43311Z" fill="#EBEBEB"/>
<path d="M6.63623 17.1738L7.03834 21.5973H17.7281V17.1738H6.63623Z" fill="#EBEBEB"/>
<path d="M17.728 37.6147L17.7086 37.6198L12.7822 36.2896L12.4673 32.7617H8.02686L8.64657 39.7071L17.7076 42.2225L17.728 42.2169V37.6147Z" fill="#EBEBEB"/>
<path d="M8.37744 0H13.735V2.24042H10.6179V4.48084H13.735V6.72126H8.37744V0Z" fill="white"/>
<path d="M14.8062 0H20.1637V1.94819H17.0466V2.33783H20.1637V6.81867H14.8062V4.77307H17.9233V4.38343H14.8062V0Z" fill="white"/>
<path d="M21.2354 0H26.5929V1.94819H23.4758V2.33783H26.5929V6.81867H21.2354V4.77307H24.3525V4.38343H21.2354V0Z" fill="white"/>
<path d="M27.996 26.1269L28.7946 17.1738H17.7139V21.5973H23.9469L23.5444 26.1269H17.7139V30.5503H23.1608L22.6474 36.2871L17.7139 37.6187V42.2207L26.7821 39.7075L26.8486 38.9602L27.8881 27.3147L27.996 26.1269Z" fill="white"/>
</g>
<defs>
<clipPath id="clip0_409_623">
<rect width="35.4571" height="50" fill="white"/>
</clipPath>
</defs>
</svg>
