<svg width="36" height="50" viewBox="0 0 36 50" fill="none" xmlns="http://www.w3.org/2000/svg">
<g clip-path="url(#clip0_409_610)">
<path d="M35.3953 9.80078L32.1763 45.8617L17.7068 49.8731L3.27711 45.8673L0.0615234 9.80078H35.3953Z" fill="#E44D26"/>
<path d="M17.728 46.8072L29.4201 43.5657L32.1709 12.75H17.728V46.8072Z" fill="#F16529"/>
<path d="M11.4705 21.5973H17.7281V17.1738H6.63623L6.74211 18.3606L7.8293 30.5503H17.7281V26.1269H11.8747L11.4705 21.5973Z" fill="#EBEBEB"/>
<path d="M12.4678 32.7617H8.02734L8.64706 39.7071L17.7081 42.2225L17.7285 42.2169V37.6147L17.7091 37.6198L12.7827 36.2896L12.4678 32.7617Z" fill="#EBEBEB"/>
<path d="M3.34863 0H5.59655V2.22094H7.65287V0H9.90088V6.72554H7.65297V4.47343H5.59665V6.72554H3.34873L3.34863 0Z" fill="white"/>
<path d="M12.8569 2.23029H10.8779V0H17.0849V2.23029H15.105V6.72554H12.857L12.8569 2.23029Z" fill="white"/>
<path d="M18.0703 0H20.4143L21.8561 2.36315L23.2965 0H25.6414V6.72554H23.4027V3.39199L21.8561 5.7833H21.8175L20.2698 3.39199V6.72554H18.0703V0Z" fill="white"/>
<path d="M26.7598 0H29.0084V4.50246H32.1696V6.72554H26.7598V0Z" fill="white"/>
<path d="M17.7134 30.5513H23.1603L22.6469 36.2881L17.7134 37.6197V42.2217L26.7816 39.7085L26.8482 38.9611L27.8876 27.3157L27.9955 26.1279H17.7134V30.5513Z" fill="white"/>
<path d="M17.7134 21.5865V21.5973H28.398L28.4868 20.603L28.6883 18.3606L28.7941 17.1738H17.7134V21.5865Z" fill="white"/>
</g>
<defs>
<clipPath id="clip0_409_610">
<rect width="35.4571" height="50" fill="white"/>
</clipPath>
</defs>
</svg>
