<svg width="50" height="50" viewBox="0 0 50 50" fill="none" xmlns="http://www.w3.org/2000/svg">
<g clip-path="url(#clip0_417_872)">
<path d="M46.9003 0.0566406L42.9009 44.8604L24.9233 49.8444L6.99519 44.8674L3 0.0566406H46.9003Z" fill="#E44D26"/>
<path d="M24.9995 46.7152L39.5086 43.4801L42.9223 12.7256H24.9995V46.7152Z" fill="#F16529"/>
<path d="M17.2343 21.5543H24.9996V17.1396H11.2354L11.3667 18.324L12.7159 30.4896H24.9996V26.075H17.736L17.2343 21.5543Z" fill="#EBEBEB"/>
<path d="M18.4717 32.6982H12.9614L13.7305 39.6299L24.9746 42.1403L24.9999 42.1346V37.5416L24.9758 37.5467L18.8625 36.2191L18.4717 32.6982Z" fill="#EBEBEB"/>
<path d="M24.981 30.4908H31.7403L31.1031 36.2162L24.981 37.5452V42.138L36.2341 39.6298L36.3166 38.8839L37.6065 27.2616L37.7405 26.0762H24.981V30.4908Z" fill="white"/>
<path d="M24.981 21.5435V21.5543H38.2399L38.3501 20.562L38.6002 18.324L38.7314 17.1396H24.981V21.5435Z" fill="white"/>
</g>
<defs>
<clipPath id="clip0_417_872">
<rect width="44" height="49.9008" fill="white" transform="translate(3)"/>
</clipPath>
</defs>
</svg>
